# xmcd
#
# Track frame offsets: 
#        150
#        24485
#        40405
#        55830
#        67320
#        77067
#        93585
#        107035
#        119862
#        132667
#        149755
#        163042
#        177342
#        190332
#        205410
#        220102
#        235025
#        248682
#
# Disc length: 3484 seconds
#
# Revision: 0
# Processed by: cddbd v1.5.2PL0 Copyright (c) Steve Scherf et al.
# Submitted via: ExactAudioCopy v1.0b3
#
DISCID=1a0d9a12
DTITLE=Various Artist - From The Heart, 36 Great Country Love Songs Disc 1
DYEAR=1999
DGENRE=Country
TTITLE0=Judds - Love Can Build A Bridge
TTITLE1=Doug Stone - I Never Knew Love
TTITLE2=T.G. Sheppard - You're My First Lady
TTITLE3=Sammi Smith - Help Me Make It Through The Night
TTITLE4=Red Sovine - Oooh, How I Love You
TTITLE5=Steve Wariner - Baby, I'm Yours
TTITLE6=Tanya Tucker - Here's Some Love
TTITLE7=Bill Anderson - But You Know I Love You
TTITLE8=Brenda Lee - Always On My Mind
TTITLE9=Conway Twitty - Crazy In Love
TTITLE10=Dave And Sugar - Got My Heart Set On You
TTITLE11=Ferlin Husky - Wings Of A Dove
TTITLE12=Conway Twitty And Loretta Lynn - I Can't Love You Enough
TTITLE13=Roy Clark - Yesterday When I Was Young
TTITLE14=Marty Stuart - Tempted
TTITLE15=Nanci Griffith - I Knew Love
TTITLE16=Nicolette Larson - Only Love Will Make It Right
TTITLE17=Patsy Cline - I Fall To Pieces
EXTD=
EXTT0=
EXTT1=
EXTT2=
EXTT3=
EXTT4=
EXTT5=
EXTT6=
EXTT7=
EXTT8=
EXTT9=
EXTT10=
EXTT11=
EXTT12=
EXTT13=
EXTT14=
EXTT15=
EXTT16=
EXTT17=
PLAYORDER=
